<svg width="10" height="10" viewBox="0 0 10 10" fill="none" xmlns="http://www.w3.org/2000/svg">
<path d="M0.21967 8.70502C-0.0732233 8.99791 -0.0732233 9.47279 0.21967 9.76568C0.512563 10.0586 0.987437 10.0586 1.28033 9.76568L0.75 9.23535L0.21967 8.70502ZM9.98528 0.750071C9.98528 0.335857 9.64949 7.04856e-05 9.23528 7.06331e-05L2.48528 7.02116e-05C2.07107 7.02116e-05 1.73528 0.335857 1.73528 0.75007C1.73528 1.16428 2.07107 1.50007 2.48528 1.50007H8.48528V7.50007C8.48528 7.91428 8.82107 8.25007 9.23528 8.25007C9.6495 8.25007 9.98528 7.91428 9.98528 7.50007L9.98528 0.750071ZM0.75 9.23535L1.28033 9.76568L9.76561 1.2804L9.23528 0.75007L8.70495 0.21974L0.21967 8.70502L0.75 9.23535Z" fill="#152333"/>
</svg>
