<svg width="28" height="19" viewBox="0 0 28 19" fill="none" xmlns="http://www.w3.org/2000/svg">
<path d="M1.25 7.95483C0.559644 7.95483 6.03529e-08 8.51448 0 9.20483C-6.03529e-08 9.89519 0.559644 10.4548 1.25 10.4548L1.25 9.20483L1.25 7.95483ZM27.1339 10.0887C27.622 9.60056 27.622 8.80911 27.1339 8.32095L19.1789 0.366001C18.6908 -0.122155 17.8993 -0.122155 17.4112 0.366001C16.923 0.854156 16.923 1.64561 17.4112 2.13377L24.4822 9.20484L17.4112 16.2759C16.923 16.7641 16.923 17.5555 17.4112 18.0437C17.8993 18.5318 18.6908 18.5318 19.1789 18.0437L27.1339 10.0887ZM1.25 9.20483L1.25 10.4548L26.25 10.4548L26.25 9.20484L26.25 7.95484L1.25 7.95483L1.25 9.20483Z" fill="#152333"/>
</svg>
