<svg width="9" height="9" viewBox="0 0 9 9" fill="none" xmlns="http://www.w3.org/2000/svg">
<path d="M0.175712 7.24682C-0.0586031 7.48113 -0.0586031 7.86103 0.175712 8.09535C0.410026 8.32966 0.789925 8.32966 1.02424 8.09535L0.599976 7.67108L0.175712 7.24682ZM8.27104 0.600014C8.27104 0.268643 8.00241 1.36977e-05 7.67104 1.39401e-05L2.27104 1.36872e-05C1.93967 1.40244e-05 1.67104 0.268643 1.67104 0.600014C1.67104 0.931385 1.93967 1.20001 2.27104 1.20001L7.07104 1.20001L7.07104 6.00001C7.07104 6.33138 7.33967 6.60001 7.67104 6.60001C8.00241 6.60001 8.27104 6.33138 8.27104 6.00001L8.27104 0.600014ZM0.599976 7.67108L1.02424 8.09535L8.09531 1.02428L7.67104 0.600014L7.24678 0.17575L0.175712 7.24682L0.599976 7.67108Z" fill="#152333"/>
</svg>
