<svg width="13" height="13" viewBox="0 0 13 13" fill="none" xmlns="http://www.w3.org/2000/svg">
<path d="M1.70711 0.292893C1.31658 -0.0976311 0.683418 -0.0976311 0.292893 0.292893C-0.0976311 0.683418 -0.0976311 1.31658 0.292893 1.70711L1 1L1.70711 0.292893ZM11.6066 12.6066C12.1589 12.6066 12.6066 12.1589 12.6066 11.6066L12.6066 2.6066C12.6066 2.05432 12.1589 1.6066 11.6066 1.6066C11.0543 1.6066 10.6066 2.05432 10.6066 2.6066L10.6066 10.6066L2.6066 10.6066C2.05432 10.6066 1.6066 11.0543 1.6066 11.6066C1.6066 12.1589 2.05432 12.6066 2.6066 12.6066L11.6066 12.6066ZM1 1L0.292893 1.70711L10.8995 12.3137L11.6066 11.6066L12.3137 10.8995L1.70711 0.292893L1 1Z" fill="#FAFAFA"/>
</svg>
