<svg width="22" height="9" viewBox="0 0 22 9" fill="none" xmlns="http://www.w3.org/2000/svg">
<path d="M0.600098 3.81833C0.268727 3.81833 9.76614e-05 4.08696 9.76324e-05 4.41833C9.76034e-05 4.74971 0.268727 5.01833 0.600098 5.01833L0.600098 4.41833L0.600098 3.81833ZM21.0244 4.8426C21.2587 4.60829 21.2587 4.22839 21.0244 3.99407L17.206 0.175695C16.9717 -0.058619 16.5918 -0.0586191 16.3575 0.175695C16.1231 0.41001 16.1231 0.789909 16.3575 1.02422L19.7516 4.41834L16.3575 7.81245C16.1231 8.04676 16.1231 8.42666 16.3575 8.66098C16.5918 8.89529 16.9717 8.89529 17.206 8.66098L21.0244 4.8426ZM0.600098 4.41833L0.600098 5.01833L20.6001 5.01834L20.6001 4.41834L20.6001 3.81834L0.600098 3.81833L0.600098 4.41833Z" fill="#152333"/>
</svg>
