<svg width="14" height="14" viewBox="0 0 14 14" fill="none" xmlns="http://www.w3.org/2000/svg">
<path d="M13.8564 4.52116L7.15644 8.61561C7.0604 8.6743 6.9396 8.6743 6.84356 8.61561L0.143565 4.52116C0.0543886 4.46667 0 4.36969 0 4.26518V2.4001C0 2.23441 0.134315 2.1001 0.3 2.1001H13.7C13.8657 2.1001 14 2.23441 14 2.4001V4.26518C14 4.36969 13.9456 4.46667 13.8564 4.52116Z" fill="white"/>
<path d="M0 11.9112V6.13501C0 5.90074 0.256529 5.75687 0.456435 5.87903L6.84356 9.78228C6.9396 9.84096 7.0604 9.84096 7.15644 9.78228L13.5436 5.87903C13.7435 5.75687 14 5.90074 14 6.13501V11.9112C14 12.0769 13.8657 12.2112 13.7 12.2112H0.3C0.134315 12.2112 0 12.0769 0 11.9112Z" fill="white"/>
</svg>
