<svg width="15" height="12" viewBox="0 0 15 12" fill="none" xmlns="http://www.w3.org/2000/svg">
<path d="M1.5 12C1.0875 12 0.7345 11.8533 0.441 11.5597C0.1475 11.2662 0.0005 10.913 0 10.5V1.5C0 1.0875 0.147 0.7345 0.441 0.441C0.735 0.1475 1.088 0.0005 1.5 0H13.5C13.9125 0 14.2658 0.147 14.5598 0.441C14.8538 0.735 15.0005 1.088 15 1.5V10.5C15 10.9125 14.8533 11.2657 14.5598 11.5597C14.2663 11.8538 13.913 12.0005 13.5 12H1.5ZM7.5 6.75L13.5 3V1.5L7.5 5.25L1.5 1.5V3L7.5 6.75Z" fill="#E60012"/>
</svg>
