<svg width="18" height="18" viewBox="0 0 18 18" fill="none" xmlns="http://www.w3.org/2000/svg">
<path fill-rule="evenodd" clip-rule="evenodd" d="M11.0158 16.8701C9.93581 16.8304 6.87506 16.4074 3.66956 13.2026C0.464807 9.99711 0.0425565 6.93711 0.0020565 5.85636C-0.0579435 4.20936 1.20356 2.60961 2.66081 1.98486C2.83629 1.90909 3.02846 1.88024 3.21845 1.90115C3.40845 1.92205 3.58975 1.992 3.74456 2.10411C4.94456 2.97861 5.77256 4.30161 6.48356 5.34186C6.63999 5.57041 6.70688 5.84853 6.67147 6.12321C6.63607 6.3979 6.50084 6.64996 6.29156 6.83136L4.82831 7.91811C4.75761 7.96916 4.70785 8.04414 4.68826 8.12911C4.66868 8.21408 4.6806 8.30327 4.72181 8.38011C5.05331 8.98236 5.64281 9.87936 6.31781 10.5544C6.99356 11.2294 7.93256 11.8579 8.57681 12.2269C8.65759 12.2722 8.75266 12.2849 8.8425 12.2623C8.93233 12.2397 9.0101 12.1835 9.05981 12.1054L10.0123 10.6556C10.1874 10.423 10.4458 10.2672 10.7332 10.2208C11.0206 10.1743 11.3149 10.2409 11.5543 10.4066C12.6096 11.1371 13.8411 11.9509 14.7426 13.1051C14.8638 13.261 14.9409 13.4467 14.9658 13.6426C14.9908 13.8385 14.9626 14.0375 14.8843 14.2189C14.2566 15.6836 12.6681 16.9309 11.0158 16.8701Z" fill="#E60012"/>
</svg>
