<svg width="14" height="18" viewBox="0 0 14 18" fill="none" xmlns="http://www.w3.org/2000/svg">
<path d="M7 0C3.13389 0 0 3.22344 0 7.2C0 9.18756 0.782947 10.9872 2.04925 12.29C3.31589 13.5936 6.30001 15.48 6.47497 17.46C6.50123 17.7568 6.71018 18 7 18C7.28976 18 7.49877 17.7568 7.52497 17.46C7.69999 15.48 10.6841 13.5936 11.9507 12.29C13.217 10.9872 14 9.18756 14 7.2C14 3.22344 10.866 0 7 0Z" fill="#E60012"/>
<path d="M7.00091 9.71969C8.354 9.71969 9.45089 8.59145 9.45089 7.19969C9.45089 5.80793 8.354 4.67969 7.00091 4.67969C5.6478 4.67969 4.5509 5.80793 4.5509 7.19969C4.5509 8.59145 5.6478 9.71969 7.00091 9.71969Z" fill="white"/>
</svg>
