<svg width="11" height="11" viewBox="0 0 11 11" fill="none" xmlns="http://www.w3.org/2000/svg">
<path d="M0.21967 9.41205C-0.0732233 9.70495 -0.0732233 10.1798 0.21967 10.4727C0.512563 10.7656 0.987437 10.7656 1.28033 10.4727L0.75 9.94238L0.21967 9.41205ZM10.6924 0.749995C10.6924 0.335781 10.3566 -5.03349e-06 9.94239 -4.88598e-06L3.19239 -5.30745e-06C2.77817 -5.30745e-06 2.44239 0.335781 2.44239 0.749995C2.44239 1.16421 2.77817 1.49999 3.19239 1.49999H9.19239V7.49999C9.19239 7.91421 9.52817 8.24999 9.94239 8.24999C10.3566 8.24999 10.6924 7.91421 10.6924 7.49999L10.6924 0.749995ZM0.75 9.94238L1.28033 10.4727L10.4727 1.28032L9.94239 0.749995L9.41206 0.219665L0.21967 9.41205L0.75 9.94238Z" fill="#152333"/>
</svg>
