<svg width="15" height="13" viewBox="0 0 15 13" fill="none" xmlns="http://www.w3.org/2000/svg">
<path d="M13.3838 0.160156C13.9271 -0.0292839 14.9033 -0.213575 14.999 0.628906C14.9466 1.82131 14.7309 3.00696 14.583 4.19238C14.2077 6.79942 13.7746 9.39764 13.3516 11.9961C13.2058 12.8617 12.1689 13.3098 11.5059 12.7559C9.91267 11.6297 8.30722 10.5146 6.73438 9.3623C6.21909 8.81441 6.69704 8.02701 7.15723 7.63574C8.46949 6.28247 9.86082 5.13223 11.1045 3.70898C11.4396 2.86169 10.4491 3.57593 10.1221 3.79492C8.32545 5.09052 6.57291 6.46584 4.67871 7.60449C3.71118 8.16175 2.58329 7.68501 1.61621 7.37402C0.749088 6.99832 -0.521112 6.61971 0.226562 6.04688C1.76101 5.16245 3.47384 4.4236 5.07422 3.68164C7.82751 2.46636 10.5917 1.27196 13.3838 0.160156Z" fill="white"/>
</svg>
