<svg width="15" height="15" viewBox="0 0 15 15" fill="none" xmlns="http://www.w3.org/2000/svg">
<path d="M7.50293 0C9.50613 0.000694293 11.3897 0.781153 12.8057 2.19824C14.2217 3.61538 15.0008 5.49963 15 7.50293C14.9982 11.6368 11.6337 15 7.5 15H7.49707C6.15127 14.9995 4.83119 14.6382 3.67969 13.9551L3.40625 13.792L0.567383 14.5371L1.3252 11.7705L1.14648 11.4863C0.395909 10.2929 -0.000500677 8.91345 0 7.49707C0.00164084 3.36347 3.36606 8.69632e-05 7.50293 0ZM4.31152 3.33105C4.16122 3.33105 3.91662 3.38764 3.70996 3.61328C3.50322 3.83899 2.92096 4.38417 2.9209 5.49316C2.9209 6.60256 3.72905 7.67479 3.8418 7.8252C3.95643 7.97867 5.43324 10.253 7.69336 11.2285C8.23113 11.4607 8.6511 11.5993 8.97852 11.7031C9.51852 11.8747 10.0101 11.85 10.3984 11.792C10.8317 11.7273 11.7329 11.2472 11.9209 10.7207C12.1087 10.1941 12.1081 9.74241 12.0518 9.64844C11.9953 9.55465 11.8452 9.49837 11.6201 9.38574C11.3947 9.27294 10.2858 8.72763 10.0791 8.65234C9.87261 8.57721 9.72245 8.53955 9.57227 8.76465C9.42211 8.99006 8.99031 9.49755 8.8584 9.64844C8.72687 9.79881 8.59452 9.81794 8.36914 9.70508C8.1433 9.59222 7.41724 9.35414 6.55664 8.58691C5.88641 7.9893 5.43331 7.25109 5.30176 7.02539C5.17024 6.79975 5.2885 6.67782 5.40137 6.56543C5.50279 6.4644 5.62656 6.30146 5.73926 6.16992C5.85181 6.03849 5.88973 5.94416 5.96484 5.79395C6.0397 5.64369 6.00257 5.5121 5.94629 5.39941C5.88993 5.28659 5.43886 4.17688 5.25098 3.72559C5.06797 3.2863 4.88153 3.34581 4.74316 3.33887C4.61193 3.33229 4.46164 3.33106 4.31152 3.33105Z" fill="white"/>
</svg>
